<mxfile host="app.diagrams.net" modified="2021-12-21T11:46:50.770Z" agent="5.0 (Windows)" etag="5u2ON7XfEKzdFBQ1QoAC" version="16.0.0" type="github">
  <diagram id="fJLDsj5dYK-ZmcHxGRxZ" name="Page-1">
    <mxGraphModel dx="2062" dy="1150" grid="1" gridSize="10" guides="1" tooltips="1" connect="1" arrows="1" fold="1" page="1" pageScale="1" pageWidth="827" pageHeight="1169" math="0" shadow="0">
      <root>
        <mxCell id="0" />
        <mxCell id="1" parent="0" />
        <mxCell id="24QXH6ZpXPtMPHfOlZUI-1" value="&lt;font style=&quot;font-size: 24px&quot; face=&quot;Verdana&quot;&gt;Germany&lt;/font&gt;" style="rounded=1;whiteSpace=wrap;html=1;fillColor=#dae8fc;strokeColor=#6c8ebf;" vertex="1" parent="1">
          <mxGeometry x="100" y="200" width="120" height="60" as="geometry" />
        </mxCell>
        <mxCell id="24QXH6ZpXPtMPHfOlZUI-2" value="&lt;font style=&quot;font-size: 24px&quot; face=&quot;Verdana&quot;&gt;Berlin&lt;/font&gt;" style="rounded=1;whiteSpace=wrap;html=1;fillColor=#dae8fc;strokeColor=#6c8ebf;" vertex="1" parent="1">
          <mxGeometry x="410" y="200" width="120" height="60" as="geometry" />
        </mxCell>
        <mxCell id="24QXH6ZpXPtMPHfOlZUI-3" value="" style="endArrow=block;html=1;rounded=0;fontFamily=Verdana;fontSize=24;exitX=1;exitY=0.5;exitDx=0;exitDy=0;entryX=0;entryY=0.5;entryDx=0;entryDy=0;endFill=1;strokeWidth=2;startSize=12;" edge="1" parent="1" source="24QXH6ZpXPtMPHfOlZUI-1" target="24QXH6ZpXPtMPHfOlZUI-2">
          <mxGeometry width="50" height="50" relative="1" as="geometry">
            <mxPoint x="540" y="610" as="sourcePoint" />
            <mxPoint x="590" y="560" as="targetPoint" />
            <Array as="points">
              <mxPoint x="390" y="230" />
            </Array>
          </mxGeometry>
        </mxCell>
        <mxCell id="24QXH6ZpXPtMPHfOlZUI-6" value="&lt;div&gt;capital&lt;/div&gt;" style="text;html=1;strokeColor=none;fillColor=none;align=center;verticalAlign=middle;whiteSpace=wrap;rounded=0;fontFamily=Verdana;fontSize=18;" vertex="1" parent="1">
          <mxGeometry x="290" y="200" width="60" height="30" as="geometry" />
        </mxCell>
      </root>
    </mxGraphModel>
  </diagram>
</mxfile>
